<?xml version="1.0"?>
<svg xmlns="http://www.w3.org/2000/svg" id="Guide" height="512px" viewBox="0 0 512 512" width="512px"><g><g fill="rgb(0,0,0)"><path d="m256 10a246 246 0 0 0 -173.948 419.948 246 246 0 1 0 347.9-347.9 244.386 244.386 0 0 0 -173.952-72.048zm165.463 411.463a234 234 0 0 1 -330.926-330.926 234 234 0 0 1 330.926 330.926z" data-original="#000000" class="active-path" data-old_color="#000000" fill="#4D565B"/><path d="m256 38.637a217.363 217.363 0 0 0 -153.7 371.063 217.363 217.363 0 0 0 307.4-307.4 215.941 215.941 0 0 0 -153.7-63.663zm191.379 142.879-156.327 5.591h-59.87l86.571-126.977a206.366 206.366 0 0 1 129.626 121.386zm-158.532 131.377h-65.694l-32.847-56.893 32.847-56.893h65.694l32.847 56.893zm16.722-256.193-90.95 133.4a8.054 8.054 0 0 0 -.7 1.01l-29.543 51.16-59.43-144.258a205.142 205.142 0 0 1 180.623-41.312zm-190.134 49.73 62.773 152.37c.061.161.126.32.2.478.109.241.218.482.351.714l30.541 52.901h-150.64a205.2 205.2 0 0 1 56.775-206.464zm-52.9 218.464h214.8l-114.662 114.011a206.5 206.5 0 0 1 -100.135-114.012zm111.677 119.461 121.81-121.116a7.989 7.989 0 0 0 2.063-2.346l30.068-52.079 67.957 137.18a205.025 205.025 0 0 1 -221.9 38.361zm230.876-47.271-71.33-143.984a7.872 7.872 0 0 0 -.516-1.1l-30.77-53.294 149.114-5.333a205.124 205.124 0 0 1 -46.5 203.711z" data-original="#000000" class="active-path" data-old_color="#000000" fill="#4D565B"/></g></g> </svg>
