<svg id="Capa_1" enable-background="new 0 0 512 512" height="512" viewBox="0 0 512 512" width="512" xmlns="http://www.w3.org/2000/svg"><g><g><g><g><g><path d="m491.589 288.709c-12.587-5.359-26.536-2.798-36.401 6.686l-53.474 51.417c-2.934 30.366-28.591 54.188-59.714 54.188h-90c-8.284 0-15-6.716-15-15s6.716-15 15-15h89.362c16.324 0 30.14-12.775 30.625-29.092.503-16.954-13.143-30.908-29.987-30.908h-81.459l-36.256-18.127c-15.533-7.768-32.924-11.873-50.292-11.873-20.377 0-40.385 5.542-57.858 16.026l-19.135 11.481v143.153l95.689 28.707c1.398.42 2.851.633 4.311.633h151.117c29.344 0 56.57-13.233 74.7-36.307l82.014-104.38c4.623-5.885 7.169-13.247 7.169-20.73 0-13.684-7.821-25.514-20.411-30.874z"/></g><g><g><g><g><g><path d="m67 341v-25c0-19.33-15.67-35-35-35h-17c-8.284 0-15 6.716-15 15v45z"/><path d="m0 371v95c0 8.284 6.716 15 15 15h17c19.33 0 35-15.67 35-35v-75z"/></g></g></g></g></g></g></g></g><g><path d="m436 92.596h-25.096c-6.007 0-11.434 3.583-13.794 9.107l-6.11 14.302h-40l-6.109-14.302c-2.36-5.524-7.787-9.107-13.794-9.107h-25.097v23.409c0 8.284-6.716 15-15 15s-15-6.716-15-15v-23.409h-35v70h182.513c4.714 0 9.154-2.216 11.988-5.984l12.487-16.602c1.955-2.599 3.012-5.764 3.012-9.016v-23.397c0-8.285-6.716-15.001-15-15.001z"/><path d="m184.489 49.257-67.575-16.894c-13.536-3.383-27.609-.4-38.607 8.187s-17.307 21.515-17.307 35.469v36.577h45c8.284 0 15 6.716 15 15s-6.716 15-15 15h-45v36.577c0 13.954 6.308 26.882 17.306 35.469 8.028 6.268 17.693 9.551 27.593 9.551 3.663 0 7.358-.449 11.015-1.363l67.575-16.894c15.609-3.903 26.511-17.866 26.511-33.955v-88.769c0-16.091-10.902-30.053-26.511-33.955z"/></g></g></svg>