<?xml version="1.0"?>
<svg xmlns="http://www.w3.org/2000/svg" id="Guide" height="512px" viewBox="0 0 512 512" width="512px"><g><g fill="rgb(0,0,0)"><path d="m415.5 256c0-104.831-85.349-190.116-190.258-190.116s-190.263 85.285-190.263 190.116 85.349 190.116 190.258 190.116 190.263-85.285 190.263-190.116zm-368.521 0c0-98.214 79.966-178.116 178.258-178.116s178.263 79.902 178.263 178.116-79.971 178.116-178.263 178.116-178.258-79.902-178.258-178.116z" data-original="#000000" class="active-path" data-old_color="#000000" fill="#4D565B"/><path d="m114.014 210.739a45.245 45.245 0 1 0 45.274 45.244 45.311 45.311 0 0 0 -45.274-45.244zm0 78.489a33.245 33.245 0 1 1 33.274-33.245 33.3 33.3 0 0 1 -33.274 33.245z" data-original="#000000" class="active-path" data-old_color="#000000" fill="#4D565B"/><path d="m336.389 301.228a45.245 45.245 0 1 0 -45.275-45.245 45.31 45.31 0 0 0 45.275 45.245zm0-78.489a33.245 33.245 0 1 1 -33.275 33.244 33.3 33.3 0 0 1 33.275-33.244z" data-original="#000000" class="active-path" data-old_color="#000000" fill="#4D565B"/><path d="m202.381 257.46a22.82 22.82 0 1 0 22.82-22.807 22.84 22.84 0 0 0 -22.82 22.807zm33.64 0a10.82 10.82 0 1 1 -10.82-10.807 10.826 10.826 0 0 1 10.82 10.807z" data-original="#000000" class="active-path" data-old_color="#000000" fill="#4D565B"/><path d="m225.2 190.125a45.244 45.244 0 1 0 -45.274-45.243 45.31 45.31 0 0 0 45.274 45.243zm0-78.487a33.244 33.244 0 1 1 -33.274 33.244 33.3 33.3 0 0 1 33.274-33.244z" data-original="#000000" class="active-path" data-old_color="#000000" fill="#4D565B"/><path d="m270.476 367.085a45.275 45.275 0 1 0 -45.276 45.244 45.31 45.31 0 0 0 45.276-45.244zm-45.276 33.244a33.244 33.244 0 1 1 33.275-33.244 33.3 33.3 0 0 1 -33.275 33.244z" data-original="#000000" class="active-path" data-old_color="#000000" fill="#4D565B"/><path d="m492.32 462.5h-195.569a219.3 219.3 0 1 0 -71.767 12h267.336a6 6 0 0 0 0-12zm-474-206.5c0-113.864 92.709-206.5 206.664-206.5s206.664 92.636 206.664 206.5-92.709 206.5-206.664 206.5-206.664-92.636-206.664-206.5z" data-original="#000000" class="active-path" data-old_color="#000000" fill="#4D565B"/></g></g> </svg>
