<?xml version="1.0" encoding="iso-8859-1"?>
<!-- Generator: Adobe Illustrator 19.0.0, SVG Export Plug-In . SVG Version: 6.00 Build 0)  -->
<svg version="1.1" id="Capa_1" xmlns="http://www.w3.org/2000/svg" xmlns:xlink="http://www.w3.org/1999/xlink" x="0px" y="0px"
	 viewBox="0 0 512 512" style="enable-background:new 0 0 512 512;" xml:space="preserve">
<g>
	<g>
		<path d="M271,394.371c42.11-1.24,84.104-7.686,125-19.371l-47.224-149.543C340.382,198.877,325.71,174.71,306,155H206
			c-19.71,19.71-34.382,43.877-42.776,70.457L116,375c40.896,11.685,82.89,18.131,125,19.371V482h-55v30h140v-30h-55V394.371z"/>
	</g>
</g>
<g>
	<g>
		<polygon points="311,45 311,0 281,0 281,45 231,45 231,0 201,0 201,45 176,45 206,125 306,125 336,45 		"/>
	</g>
</g>
<g>
</g>
<g>
</g>
<g>
</g>
<g>
</g>
<g>
</g>
<g>
</g>
<g>
</g>
<g>
</g>
<g>
</g>
<g>
</g>
<g>
</g>
<g>
</g>
<g>
</g>
<g>
</g>
<g>
</g>
</svg>
