<?xml version="1.0"?>
<svg xmlns="http://www.w3.org/2000/svg" id="Guide" height="512px" viewBox="0 0 512 512" width="512px"><g><path d="m470.442 356.756 8.311-7.676c2.661-2.457 3.993-5.02 4.072-7.837.115-4.14-2.557-6.9-4.509-8.917-.249-.257-.5-.519-.757-.79l-64.64-68.826 10.051-9.283c4.627-4.274 7.063-8.957 7.239-13.919.186-5.239-2.082-10.3-6.935-15.465l-47.358-50.426a5.871 5.871 0 0 0 -3.033-3.229l-52.883-56.311-89.876-95.695c-9.666-10.294-19.318-11.124-28.686-2.472l-179.188 165.501c-4.628 4.274-7.063 8.957-7.24 13.919-.186 5.239 2.082 10.3 6.935 15.465l89.805 95.622 103.35 110.04c5.573 5.934 10.862 7.984 15.511 7.984 5.925 0 10.813-3.331 13.924-6.2l13.82-12.764c.019-.013.037-.03.056-.043l64.7 68.893c.3.314.577.627.85.931 1.845 2.048 4.371 4.852 8.441 5.039.135.007.27.01.406.01a11.055 11.055 0 0 0 7.493-3.345l3.851-3.557 21.716 23.093c.231.245.453.49.67.73 1.655 1.827 4.158 4.588 8.218 4.768q.2.009.393.009c4.183 0 7.376-2.949 8.447-3.938l109.544-101.181a10.72 10.72 0 0 0 3.86-7.528c.144-4.2-2.494-7-4.614-9.242zm-88.356-81.9-51.147-54.461 16.551-15.286 51.147 54.46zm-25.366 23.426-51.148-54.461 16.551-15.287 51.148 54.466zm-25.367 23.429-51.147-54.461 16.551-15.287 51.143 54.461zm-25.366 23.428-51.148-54.46 16.551-15.287 51.148 54.461zm-25.367 23.429-51.147-54.46 16.551-15.287 51.148 54.46zm-25.366 23.432-51.147-54.461 16.55-15.286 51.148 54.46zm-130.581-89.351 190.617-176.056 46.227 49.221-190.617 176.057zm-61.464-65.449 14.37-13.273 53.25 56.7-14.371 13.273zm243.865-119.355-15.232 14.069-53.249-56.7 15.232-14.069zm-77.3-34.487 53.249 56.7-16.551 15.287-53.249-56.7zm-25.367 23.429 53.249 56.7-16.551 15.287-53.249-56.7zm-25.366 23.429 53.249 56.7-16.547 15.284-53.249-56.7zm-25.367 23.429 53.25 56.7-16.547 15.285-53.249-56.7zm-25.366 23.428 53.249 56.7-16.547 15.286-53.249-56.7zm-25.362 23.427 53.254 56.7-16.551 15.286-53.249-56.697zm315.271 38.58c-.059 1.647-1.2 3.507-3.389 5.53l-7.376 6.812-51.147-54.46 13.427-12.4 44.795 47.7c2.514 2.673 3.755 4.969 3.69 6.82zm-391.217-43.324c.059-1.646 1.2-3.506 3.389-5.529l179.191-165.502c1.875-1.731 3.344-2.72 4.916-2.72 1.866 0 3.877 1.393 6.88 4.592l24.234 25.803-190.616 176.056-24.3-25.876c-2.516-2.68-3.757-4.973-3.694-6.824zm209.389 213.665c-4.063 3.752-7.118 4.6-12.546-1.179l-44.727-47.624 16.175-14.94 51.148 54.461zm96.488 57.8c-.328-.365-.666-.739-1.019-1.115l-64.64-68.825 16.5-15.239a4.511 4.511 0 0 0 1.282-1.187l24.078-22.239a4.466 4.466 0 0 0 1.29-1.192l24.077-22.237a4.5 4.5 0 0 0 1.293-1.187l24.075-22.236a5.979 5.979 0 0 0 .773-.6 5.844 5.844 0 0 0 .52-.6l24.074-22.234a5.97 5.97 0 0 0 .772-.6 5.834 5.834 0 0 0 .52-.6l17.628-16.278 64.708 68.9c.3.316.593.623.882.922l.225.232-12.1 11.174-117.476 108.5-7.339 6.782zm42.6 22c-.018-.02-.035-.038-.052-.058-.263-.29-.533-.588-.816-.889l-21.645-23.017 108.663-100.357 21.7 23.109.323.343c.152.161.318.337.485.516z" fill="#4D565B" data-original="#000000" class="active-path" data-old_color="rgb(0,0,0)"/></g> </svg>
