<?xml version="1.0"?>
<svg xmlns="http://www.w3.org/2000/svg" id="Guide" height="512px" viewBox="0 0 512 512" width="512px"><g><g fill="rgb(0,0,0)"><path d="m496 428.42h-480a6 6 0 0 0 0 12h480a6 6 0 0 0 0-12z" data-original="#000000" class="active-path" data-old_color="#000000" fill="#4D565B"/><path d="m496 101.58h-480a6 6 0 0 0 0 12h480a6 6 0 0 0 0-12z" data-original="#000000" class="active-path" data-old_color="#000000" fill="#4D565B"/><path d="m142.407 210.872v120.256a26.029 26.029 0 0 0 26 26h178.831a26.029 26.029 0 0 0 26-26v-120.256a26.029 26.029 0 0 0 -26-26h-178.831a26.029 26.029 0 0 0 -26 26zm12 0a14.015 14.015 0 0 1 14-14h178.831a14.015 14.015 0 0 1 14 14v120.256a14.015 14.015 0 0 1 -14 14h-178.831a14.015 14.015 0 0 1 -14-14z" data-original="#000000" class="active-path" data-old_color="#000000" fill="#4D565B"/><path d="m93 344.128h-77a6 6 0 0 0 0 12h77a26.029 26.029 0 0 0 26-26v-120.256a26.029 26.029 0 0 0 -26-26h-77a6 6 0 0 0 0 12h77a14.015 14.015 0 0 1 14 14v120.256a14.015 14.015 0 0 1 -14 14z" data-original="#000000" class="active-path" data-old_color="#000000" fill="#4D565B"/><path d="m431.984 196.872h64.016a6 6 0 0 0 0-12h-64.016a26.029 26.029 0 0 0 -26 26v120.256a26.029 26.029 0 0 0 26 26h64.016a6 6 0 0 0 0-12h-64.016a14.015 14.015 0 0 1 -14-14v-120.256a14.015 14.015 0 0 1 14-14z" data-original="#000000" class="active-path" data-old_color="#000000" fill="#4D565B"/><path d="m19.749 153.528a6 6 0 1 0 0 12h35.751a8.3 8.3 0 0 0 8-8.55v-20.306a8.3 8.3 0 0 0 -8-8.55h-35.751a6 6 0 1 0 0 12h31.751v13.406z" data-original="#000000" class="active-path" data-old_color="#000000" fill="#4D565B"/><path d="m128.721 128.122h-35.751a8.009 8.009 0 0 0 -8 8v21.406a8.009 8.009 0 0 0 8 8h35.751a8.009 8.009 0 0 0 8-8v-21.406a8.009 8.009 0 0 0 -8-8zm-4 25.406h-27.751v-13.406h27.751z" data-original="#000000" class="active-path" data-old_color="#000000" fill="#4D565B"/><path d="m201.941 165.528a8.009 8.009 0 0 0 8-8v-21.406a8.009 8.009 0 0 0 -8-8h-35.751a8.009 8.009 0 0 0 -8 8v21.406a8.009 8.009 0 0 0 8 8zm-31.751-25.406h27.751v13.406h-27.751z" data-original="#000000" class="active-path" data-old_color="#000000" fill="#4D565B"/><path d="m275.161 165.528a8.009 8.009 0 0 0 8-8v-21.406a8.009 8.009 0 0 0 -8-8h-35.751a8.009 8.009 0 0 0 -8 8v21.406a8.009 8.009 0 0 0 8 8zm-31.751-25.406h27.751v13.406h-27.751z" data-original="#000000" class="active-path" data-old_color="#000000" fill="#4D565B"/><path d="m348.382 165.528a8.009 8.009 0 0 0 8-8v-21.406a8.009 8.009 0 0 0 -8-8h-35.752a8.009 8.009 0 0 0 -8 8v21.406a8.009 8.009 0 0 0 8 8zm-31.752-25.406h27.752v13.406h-27.752z" data-original="#000000" class="active-path" data-old_color="#000000" fill="#4D565B"/><path d="m429.6 157.528v-21.406a8.009 8.009 0 0 0 -8-8h-35.749a8.009 8.009 0 0 0 -8 8v21.406a8.009 8.009 0 0 0 8 8h35.749a8.009 8.009 0 0 0 8-8zm-12-4h-27.749v-13.406h27.749z" data-original="#000000" class="active-path" data-old_color="#000000" fill="#4D565B"/><path d="m494.822 140.122a6 6 0 0 0 0-12h-35.751a8.3 8.3 0 0 0 -8 8.55v20.306a8.3 8.3 0 0 0 8 8.55h35.751a6 6 0 0 0 0-12h-31.751v-13.406z" data-original="#000000" class="active-path" data-old_color="#000000" fill="#4D565B"/><path d="m20.286 401.2a6 6 0 0 0 0 12h35.751a8.3 8.3 0 0 0 8-8.551v-20.3a8.3 8.3 0 0 0 -8-8.55h-35.751a6 6 0 0 0 0 12h31.751v13.401z" data-original="#000000" class="active-path" data-old_color="#000000" fill="#4D565B"/><path d="m129.258 375.8h-35.752a8.009 8.009 0 0 0 -8 8v21.4a8.009 8.009 0 0 0 8 8h35.752a8.009 8.009 0 0 0 8-8v-21.4a8.009 8.009 0 0 0 -8-8zm-4 25.406h-27.752v-13.406h27.752z" data-original="#000000" class="active-path" data-old_color="#000000" fill="#4D565B"/><path d="m166.727 375.8a8.009 8.009 0 0 0 -8 8v21.4a8.009 8.009 0 0 0 8 8h35.751a8.009 8.009 0 0 0 8-8v-21.4a8.009 8.009 0 0 0 -8-8zm31.751 25.4h-27.751v-13.4h27.751z" data-original="#000000" class="active-path" data-old_color="#000000" fill="#4D565B"/><path d="m239.947 375.8a8.009 8.009 0 0 0 -8 8v21.4a8.009 8.009 0 0 0 8 8h35.753a8.009 8.009 0 0 0 8-8v-21.4a8.009 8.009 0 0 0 -8-8zm31.753 25.4h-27.753v-13.4h27.753z" data-original="#000000" class="active-path" data-old_color="#000000" fill="#4D565B"/><path d="m313.167 375.8a8.009 8.009 0 0 0 -8 8v21.4a8.009 8.009 0 0 0 8 8h35.751a8.009 8.009 0 0 0 8-8v-21.4a8.009 8.009 0 0 0 -8-8zm31.751 25.4h-27.751v-13.4h27.751z" data-original="#000000" class="active-path" data-old_color="#000000" fill="#4D565B"/><path d="m378.388 383.8v21.4a8.009 8.009 0 0 0 8 8h35.751a8.009 8.009 0 0 0 8-8v-21.4a8.009 8.009 0 0 0 -8-8h-35.751a8.009 8.009 0 0 0 -8 8zm12 4h27.751v13.4h-27.751z" data-original="#000000" class="active-path" data-old_color="#000000" fill="#4D565B"/><path d="m495.359 387.8a6 6 0 0 0 0-12h-35.752a8.3 8.3 0 0 0 -8 8.55v20.3a8.3 8.3 0 0 0 8 8.551h35.752a6 6 0 0 0 0-12h-31.752v-13.401z" data-original="#000000" class="active-path" data-old_color="#000000" fill="#4D565B"/></g></g> </svg>
