<?xml version="1.0"?>
<svg xmlns="http://www.w3.org/2000/svg" id="Guide" height="512px" viewBox="0 0 512 512" width="512px"><g><g fill="rgb(0,0,0)"><path d="m492.857 94.268a8.156 8.156 0 0 0 -6.882-1.62 1078.656 1078.656 0 0 1 -229.981 24.846h-1.007a1078.737 1078.737 0 0 1 -228.96-24.845 8.187 8.187 0 0 0 -9.939 8.006v310.69a8.191 8.191 0 0 0 8.175 8.2 8.315 8.315 0 0 0 1.706-.178 1112.986 1112.986 0 0 1 460.062 0 8.189 8.189 0 0 0 9.881-8.019v-310.693a8.159 8.159 0 0 0 -3.055-6.387zm-8.945 312.394a1127.446 1127.446 0 0 0 -226.619-23.328h-1.28a1127.383 1127.383 0 0 0 -227.925 23.328v-301.29a1090.833 1090.833 0 0 0 226.888 24.121h1.018a1090.886 1090.886 0 0 0 227.918-24.122z" data-original="#000000" class="active-path" data-old_color="#000000" fill="#4D565B"/><path d="m187.642 206.978a8.043 8.043 0 0 0 -11.109 1.414l-78.1 98.8a8 8 0 0 0 6.15 12.961l302.588 4.76h.126a8 8 0 0 0 5.938-13.36l-58.135-64.409a8 8 0 0 0 -9.613-1.747l-63.73 32.945zm97.383 83.183 63.232-32.688 49.908 55.293-285.3-4.488 70.651-89.369 93 70.518a8.039 8.039 0 0 0 8.509.734z" data-original="#000000" class="active-path" data-old_color="#000000" fill="#4D565B"/><path d="m282.577 252.245a32.578 32.578 0 1 0 -32.577-32.578 32.615 32.615 0 0 0 32.577 32.578zm0-53.155a20.578 20.578 0 1 1 -20.577 20.577 20.6 20.6 0 0 1 20.577-20.577z" data-original="#000000" class="active-path" data-old_color="#000000" fill="#4D565B"/></g></g> </svg>
