<?xml version="1.0" encoding="iso-8859-1"?>
<!-- Generator: Adobe Illustrator 19.0.0, SVG Export Plug-In . SVG Version: 6.00 Build 0)  -->
<svg version="1.1" id="Capa_1" xmlns="http://www.w3.org/2000/svg" xmlns:xlink="http://www.w3.org/1999/xlink" x="0px" y="0px"
	 viewBox="0 0 359.132 359.132" style="enable-background:new 0 0 359.132 359.132;" xml:space="preserve">
<path id="XMLID_337_" d="M228.536,125.687c-2.211,0-4.406,0.068-6.586,0.19c-9.952-12.502-22.41-22.92-36.608-30.493
	c1.912-3.314,3.012-7.154,3.012-11.248c0-6.306-2.6-12.014-6.782-16.115c5.287-8.001,9.127-16.834,10.192-26.313
	c1.213-10.792-2.208-21.591-9.384-29.627C175.433,4.301,165.928,0.011,155.574,0c-9.434,0-18.269,3.547-24.986,9.892
	c-6.712-6.339-15.544-9.886-24.99-9.892C95.127,0,85.529,4.38,78.573,12.334c-7.224,8.26-10.519,19.313-9.039,30.321
	c1.221,9.078,5.002,17.579,10.139,25.315c-4.212,4.105-6.835,9.833-6.835,16.166c0,4.094,1.1,7.933,3.012,11.248
	c-36.842,19.649-61.977,58.472-61.977,103.061c0,64.361,52.362,116.723,116.723,116.723c2.211,0,4.406-0.068,6.586-0.19
	c21.402,26.887,54.397,44.155,91.353,44.155c64.361,0,116.723-52.361,116.723-116.723S292.896,125.687,228.536,125.687z
	 M207.318,198.444c0,32.979-20.919,61.162-50.183,71.986c-3.421-8.687-5.322-18.134-5.322-28.021
	c0-32.979,20.919-61.162,50.183-71.986C205.418,179.111,207.318,188.557,207.318,198.444z M53.874,198.444
	c0-42.305,34.417-76.723,76.723-76.723c17.534,0,33.703,5.926,46.638,15.862c-38.711,19.022-65.421,58.861-65.421,104.825
	c0,10.862,1.497,21.381,4.286,31.366C80.704,266.976,53.874,235.792,53.874,198.444z M228.536,319.132
	c-17.534,0-33.703-5.926-46.638-15.862c38.711-19.022,65.421-58.861,65.421-104.825c0-10.862-1.497-21.381-4.286-31.366
	c35.395,6.799,62.226,37.983,62.226,75.331C305.258,284.714,270.841,319.132,228.536,319.132z"/>
<g>
</g>
<g>
</g>
<g>
</g>
<g>
</g>
<g>
</g>
<g>
</g>
<g>
</g>
<g>
</g>
<g>
</g>
<g>
</g>
<g>
</g>
<g>
</g>
<g>
</g>
<g>
</g>
<g>
</g>
</svg>
